<svg width="40" height="40" viewBox="0 0 40 40" fill="none" xmlns="http://www.w3.org/2000/svg">
<path d="M9.27722 20.193L9.277 20.1927C9.19863 20.0835 9.15192 19.9548 9.14203 19.8208C9.13214 19.6868 9.1594 19.5527 9.22082 19.4332C9.34771 19.189 9.59915 19.0355 9.87106 19.0355H14.624H14.874V18.7855V6.03058V6.03038C14.8739 5.93433 14.8928 5.8392 14.9295 5.75045C14.9662 5.66169 15.02 5.58104 15.0879 5.51311C15.1559 5.44518 15.2365 5.3913 15.3252 5.35455C15.414 5.3178 15.5091 5.29891 15.6051 5.29895H15.6052L24.3962 5.29856H24.3964C24.4924 5.29848 24.5875 5.31733 24.6762 5.35402C24.7649 5.39071 24.8455 5.44453 24.9134 5.5124C24.9813 5.58027 25.0352 5.66086 25.0719 5.74955C25.1086 5.83824 25.1275 5.93331 25.1275 6.02931V6.0294L25.1271 18.7859L25.1271 19.0359H25.3771H30.1284L30.1289 19.0359C30.2631 19.0356 30.3946 19.0724 30.5092 19.1421C30.6237 19.2119 30.7168 19.3118 30.7782 19.4311L30.7785 19.4317C30.8402 19.5509 30.8679 19.6847 30.8586 19.8186C30.8492 19.9525 30.8031 20.0812 30.7253 20.1905L20.6295 34.3935C20.5619 34.4885 20.4726 34.566 20.369 34.6195C20.2655 34.6731 20.1507 34.7011 20.0342 34.7014H20.0323C19.9162 34.7013 19.8018 34.6735 19.6986 34.6204C19.5953 34.5673 19.5062 34.4904 19.4386 34.396L9.27722 20.193Z" fill="white" stroke="#DF9420" stroke-width="0.5"/>
</svg>
