<svg width="46" height="60" viewBox="0 0 46 60" fill="none" xmlns="http://www.w3.org/2000/svg">
<path d="M1.1478 30.677L21.4707 59.0831C21.6522 59.3364 21.8913 59.5429 22.1684 59.6855C22.4455 59.828 22.7526 59.9025 23.0642 59.9028H23.0689C23.3817 59.9022 23.6898 59.8269 23.9677 59.6832C24.2455 59.5396 24.485 59.3317 24.6664 59.0768L44.8582 30.6708C45.067 30.3771 45.1907 30.0316 45.2159 29.6721C45.2411 29.3127 45.1667 28.9533 45.001 28.6334C44.8361 28.3131 44.5861 28.0445 44.2783 27.8572C43.9706 27.6698 43.6171 27.5711 43.2569 27.5718H33.7541L33.7549 2.05882C33.755 1.80111 33.7043 1.54591 33.6057 1.3078C33.5071 1.0697 33.3626 0.853372 33.1803 0.671181C32.998 0.488989 32.7817 0.344512 32.5435 0.24601C32.3054 0.147507 32.0502 0.0969133 31.7924 0.0971184L14.2105 0.0978966C13.9527 0.097794 13.6973 0.14851 13.4592 0.247147C13.221 0.345783 13.0045 0.490401 12.8223 0.672737C12.64 0.855073 12.4955 1.07155 12.3969 1.30978C12.2984 1.54802 12.2478 1.80335 12.248 2.06116V27.5711H2.74212C2.00892 27.5711 1.33578 27.9845 0.997261 28.6373C0.832159 28.9582 0.758853 29.3185 0.785416 29.6784C0.811978 30.0383 0.937381 30.3838 1.1478 30.677Z" fill="white"/>
</svg>
