<svg width="76" height="75" viewBox="0 0 76 75" fill="none" xmlns="http://www.w3.org/2000/svg">
<path d="M45.1998 11.1123C45.2791 10.8149 45.416 10.536 45.6027 10.2917C45.7894 10.0473 46.0223 9.84233 46.288 9.68833C46.5537 9.53434 46.847 9.4344 47.1512 9.39421C47.4554 9.35402 47.7645 9.37437 48.0609 9.4541C52.3906 10.5877 56.341 12.8591 59.5051 16.0343C62.6692 19.2095 64.9326 23.1736 66.0623 27.5186C66.1418 27.816 66.162 28.1262 66.122 28.4314C66.0819 28.7367 65.9823 29.031 65.8289 29.2977C65.6754 29.5643 65.4711 29.798 65.2276 29.9853C64.9842 30.1727 64.7063 30.3101 64.4099 30.3897C64.2126 30.4417 64.0095 30.4682 63.8055 30.4688C63.2913 30.4689 62.7913 30.2987 62.3832 29.9846C61.9752 29.6705 61.6819 29.23 61.5488 28.7315C60.6279 25.184 58.7808 21.9472 56.198 19.3548C53.6152 16.7624 50.39 14.9082 46.8551 13.9834C46.5585 13.9042 46.2803 13.767 46.0365 13.5798C45.7927 13.3925 45.5881 13.1589 45.4343 12.8922C45.2806 12.6256 45.1807 12.3311 45.1405 12.0257C45.1002 11.7203 45.1204 11.4099 45.1998 11.1123ZM44.5196 23.3584C48.5455 24.4365 51.1322 27.0352 52.2065 31.0752C52.3396 31.5737 52.6329 32.0142 53.041 32.3283C53.449 32.6425 53.949 32.8127 54.4633 32.8125C54.6672 32.812 54.8703 32.7854 55.0676 32.7334C55.364 32.6538 55.6419 32.5165 55.8854 32.3291C56.1288 32.1417 56.3331 31.9081 56.4866 31.6414C56.6401 31.3748 56.7396 31.0804 56.7797 30.7752C56.8197 30.4699 56.7995 30.1597 56.72 29.8623C55.2252 24.249 51.319 20.3291 45.7253 18.8291C45.429 18.7497 45.1199 18.7296 44.8158 18.77C44.5117 18.8104 44.2185 18.9105 43.953 19.0646C43.6874 19.2187 43.4548 19.4238 43.2682 19.6682C43.0816 19.9125 42.9449 20.1914 42.8657 20.4888C42.7865 20.7862 42.7665 21.0963 42.8068 21.4015C42.847 21.7066 42.9468 22.0008 43.1004 22.2673C43.254 22.5338 43.4583 22.7673 43.7019 22.9545C43.9454 23.1417 44.2232 23.279 44.5196 23.3584ZM65.6652 46.4238L51.9117 40.2393L51.8737 40.2217C51.1597 39.9152 50.3808 39.7922 49.6075 39.8639C48.8342 39.9355 48.0909 40.1994 47.4449 40.6318C47.3688 40.6823 47.2957 40.737 47.2259 40.7959L40.1199 46.875C35.6181 44.6807 30.9703 40.0518 28.7837 35.5928L34.8503 28.3535C34.9087 28.2803 34.9642 28.207 35.0167 28.1279C35.4384 27.4814 35.6942 26.7402 35.7614 25.9704C35.8287 25.2007 35.7052 24.4262 35.4021 23.7158V23.6807L29.2216 9.85547C28.8209 8.92754 28.1318 8.15454 27.2573 7.65187C26.3828 7.14921 25.3698 6.94383 24.3694 7.06641C20.4135 7.58879 16.7823 9.53839 14.154 12.5511C11.5258 15.5637 10.0803 19.4335 10.0874 23.4375C10.0874 46.6992 28.9472 65.625 52.1277 65.625C56.1178 65.6322 59.974 64.1816 62.9761 61.5442C65.9783 58.9067 67.9211 55.2628 68.4417 51.293C68.564 50.2895 68.3598 49.2731 67.8594 48.3956C67.3591 47.5181 66.5894 46.8264 65.6652 46.4238Z" fill="#494949"/>
</svg>
