<svg width="76" height="75" viewBox="0 0 76 75" fill="none" xmlns="http://www.w3.org/2000/svg">
<path d="M45.1993 11.1122C45.2786 10.8148 45.4155 10.5359 45.6022 10.2916C45.7889 10.0472 46.0218 9.84222 46.2875 9.68823C46.5532 9.53424 46.8465 9.43429 47.1507 9.3941C47.4549 9.35391 47.764 9.37426 48.0604 9.454C52.3901 10.5876 56.3405 12.859 59.5046 16.0342C62.6687 19.2094 64.9321 23.1735 66.0618 27.5185C66.1413 27.8159 66.1615 28.126 66.1215 28.4313C66.0814 28.7366 65.9818 29.0309 65.8284 29.2976C65.6749 29.5642 65.4706 29.7979 65.2272 29.9852C64.9837 30.1726 64.7058 30.31 64.4094 30.3895C64.2121 30.4416 64.009 30.4681 63.8051 30.4687C63.2908 30.4688 62.7908 30.2986 62.3828 29.9845C61.9747 29.6704 61.6814 29.2299 61.5483 28.7313C60.6274 25.1839 58.7803 21.9471 56.1975 19.3547C53.6147 16.7623 50.3895 14.9081 46.8547 13.9833C46.558 13.9041 46.2798 13.7669 46.036 13.5797C45.7922 13.3924 45.5876 13.1588 45.4338 12.8921C45.2801 12.6255 45.1802 12.331 45.14 12.0256C45.0998 11.7202 45.1199 11.4098 45.1993 11.1122ZM44.5191 23.3583C48.545 24.4364 51.1317 27.0351 52.206 31.0751C52.3391 31.5736 52.6324 32.0141 53.0405 32.3282C53.4485 32.6424 53.9485 32.8126 54.4628 32.8124C54.6668 32.8119 54.8698 32.7853 55.0671 32.7333C55.3635 32.6537 55.6414 32.5164 55.8849 32.329C56.1284 32.1416 56.3327 31.9079 56.4861 31.6413C56.6396 31.3747 56.7392 31.0803 56.7792 30.7751C56.8193 30.4698 56.799 30.1596 56.7195 29.8622C55.2248 24.2489 51.3185 20.329 45.7248 18.829C45.4285 18.7496 45.1194 18.7295 44.8153 18.7699C44.5112 18.8103 44.218 18.9104 43.9525 19.0645C43.687 19.2186 43.4543 19.4237 43.2677 19.6681C43.0812 19.9124 42.9444 20.1913 42.8652 20.4887C42.786 20.7861 42.766 21.0962 42.8063 21.4014C42.8466 21.7065 42.9463 22.0007 43.0999 22.2672C43.2535 22.5337 43.4579 22.7672 43.7014 22.9544C43.9449 23.1416 44.2227 23.2789 44.5191 23.3583ZM65.6648 46.4237L51.9112 40.2392L51.8732 40.2216C51.1592 39.9151 50.3803 39.7921 49.607 39.8638C48.8337 39.9354 48.0905 40.1993 47.4444 40.6317C47.3683 40.6822 47.2952 40.7369 47.2254 40.7958L40.1195 46.8749C35.6176 44.6806 30.9699 40.0517 28.7832 35.5927L34.8498 28.3534C34.9082 28.2802 34.9637 28.2069 35.0162 28.1278C35.4379 27.4813 35.6937 26.7401 35.7609 25.9703C35.8282 25.2006 35.7047 24.426 35.4016 23.7157V23.6806L29.2211 9.85536C28.8204 8.92743 28.1313 8.15443 27.2568 7.65177C26.3824 7.1491 25.3693 6.94373 24.369 7.0663C20.413 7.58868 16.7818 9.53828 14.1536 12.551C11.5253 15.5636 10.0798 19.4334 10.0869 23.4374C10.0869 46.6991 28.9467 65.6249 52.1272 65.6249C56.1173 65.6321 59.9735 64.1815 62.9757 61.544C65.9778 58.9066 67.9206 55.2627 68.4412 51.2929C68.5635 50.2893 68.3593 49.273 67.8589 48.3955C67.3586 47.518 66.5889 46.8263 65.6648 46.4237Z" fill="#C07708"/>
</svg>
