<svg width="76" height="75" viewBox="0 0 76 75" fill="none" xmlns="http://www.w3.org/2000/svg">
<path d="M38.25 6.25C55.5094 6.25 69.5 20.2406 69.5 37.5C69.5 54.7594 55.5094 68.75 38.25 68.75H13.25C11.5924 68.75 10.0027 68.0915 8.83058 66.9194C7.65848 65.7473 7 64.1576 7 62.5V37.5C7 20.2406 20.9906 6.25 38.25 6.25ZM38.25 12.5C31.6196 12.5 25.2607 15.1339 20.5723 19.8223C15.8839 24.5107 13.25 30.8696 13.25 37.5V62.5H38.25C44.8804 62.5 51.2393 59.8661 55.9277 55.1777C60.6161 50.4893 63.25 44.1304 63.25 37.5C63.25 30.8696 60.6161 24.5107 55.9277 19.8223C51.2393 15.1339 44.8804 12.5 38.25 12.5ZM38.25 43.75C39.0465 43.7509 39.8126 44.0559 40.3918 44.6027C40.971 45.1494 41.3195 45.8967 41.3662 46.6919C41.4128 47.487 41.1541 48.2699 40.6429 48.8807C40.1317 49.4915 39.4066 49.8841 38.6156 49.9781L38.25 50H28.875C28.0785 49.9991 27.3124 49.6941 26.7332 49.1474C26.154 48.6006 25.8055 47.8533 25.7588 47.0581C25.7122 46.263 25.9709 45.4801 26.4821 44.8693C26.9933 44.2585 27.7185 43.866 28.5094 43.7719L28.875 43.75H38.25ZM47.625 31.25C48.4538 31.25 49.2487 31.5792 49.8347 32.1653C50.4208 32.7513 50.75 33.5462 50.75 34.375C50.75 35.2038 50.4208 35.9987 49.8347 36.5847C49.2487 37.1708 48.4538 37.5 47.625 37.5H28.875C28.0462 37.5 27.2513 37.1708 26.6653 36.5847C26.0792 35.9987 25.75 35.2038 25.75 34.375C25.75 33.5462 26.0792 32.7513 26.6653 32.1653C27.2513 31.5792 28.0462 31.25 28.875 31.25H47.625Z" fill="#C07708"/>
</svg>
