<svg width="76" height="57" viewBox="0 0 76 57" fill="none" xmlns="http://www.w3.org/2000/svg">
<path fill-rule="evenodd" clip-rule="evenodd" d="M70.8281 8.26875L41.2359 32.775C40.3951 33.4717 39.3373 33.853 38.2453 33.853C37.1533 33.853 36.0956 33.4717 35.2547 32.775L5.67656 8.26875C5.51778 8.74644 5.43705 9.24661 5.4375 9.75V47.25C5.4375 48.4932 5.93136 49.6855 6.81044 50.5646C7.68951 51.4436 8.8818 51.9375 10.125 51.9375H66.375C67.6182 51.9375 68.8105 51.4436 69.6896 50.5646C70.5686 49.6855 71.0625 48.4932 71.0625 47.25V9.75C71.0645 9.24687 70.9853 8.7467 70.8281 8.26875ZM10.125 0.375H66.375C68.8614 0.375 71.246 1.36272 73.0041 3.12087C74.7623 4.87903 75.75 7.2636 75.75 9.75V47.25C75.75 49.7364 74.7623 52.121 73.0041 53.8791C71.246 55.6373 68.8614 56.625 66.375 56.625H10.125C7.6386 56.625 5.25403 55.6373 3.49587 53.8791C1.73772 52.121 0.75 49.7364 0.75 47.25V9.75C0.75 7.2636 1.73772 4.87903 3.49587 3.12087C5.25403 1.36272 7.6386 0.375 10.125 0.375ZM9.14062 5.0625L35.2781 26.6391C36.1152 27.3305 37.1664 27.7099 38.2522 27.7124C39.3379 27.715 40.3909 27.3406 41.2312 26.6531L67.6312 5.0625H9.14062Z" fill="#494949"/>
</svg>
