<svg width="76" height="75" viewBox="0 0 76 75" fill="none" xmlns="http://www.w3.org/2000/svg">
<g clip-path="url(#clip0_1_8215)">
<path fill-rule="evenodd" clip-rule="evenodd" d="M70.8281 17.2688L41.2359 41.775C40.3951 42.4717 39.3373 42.853 38.2453 42.853C37.1533 42.853 36.0956 42.4717 35.2547 41.775L5.67656 17.2688C5.51778 17.7464 5.43705 18.2466 5.4375 18.75V56.25C5.4375 57.4932 5.93136 58.6855 6.81044 59.5646C7.68951 60.4436 8.8818 60.9375 10.125 60.9375H66.375C67.6182 60.9375 68.8105 60.4436 69.6896 59.5646C70.5686 58.6855 71.0625 57.4932 71.0625 56.25V18.75C71.0645 18.2469 70.9853 17.7467 70.8281 17.2688ZM10.125 9.375H66.375C68.8614 9.375 71.246 10.3627 73.0041 12.1209C74.7623 13.879 75.75 16.2636 75.75 18.75V56.25C75.75 58.7364 74.7623 61.121 73.0041 62.8791C71.246 64.6373 68.8614 65.625 66.375 65.625H10.125C7.6386 65.625 5.25403 64.6373 3.49587 62.8791C1.73772 61.121 0.75 58.7364 0.75 56.25V18.75C0.75 16.2636 1.73772 13.879 3.49587 12.1209C5.25403 10.3627 7.6386 9.375 10.125 9.375ZM9.14062 14.0625L35.2781 35.6391C36.1152 36.3305 37.1664 36.7099 38.2522 36.7124C39.3379 36.715 40.3909 36.3406 41.2312 35.6531L67.6312 14.0625H9.14062Z" fill="#C07708"/>
</g>
<defs>
<clipPath id="clip0_1_8215">
<rect width="75" height="75" fill="white" transform="translate(0.75)"/>
</clipPath>
</defs>
</svg>
