<svg width="16" height="14" viewBox="0 0 16 14" fill="none" xmlns="http://www.w3.org/2000/svg">
<path d="M0.889064 13.8417C0.775489 13.8011 0.676956 13.7249 0.60721 13.6236C0.537464 13.5222 0.499985 13.4009 0.5 13.2764C0.5 10.5452 1.02933 8.36104 2.07392 6.78398C3.33595 4.87852 5.3267 3.85256 8.00003 3.72515V0.72274C8.00004 0.605686 8.03321 0.49121 8.09544 0.393513C8.15766 0.295817 8.2462 0.2192 8.35007 0.173167C8.45393 0.127133 8.56856 0.11371 8.67972 0.134561C8.79088 0.155412 8.89369 0.209621 8.97539 0.290462L15.3216 6.56728C15.378 6.6231 15.4229 6.69019 15.4535 6.76448C15.4842 6.83878 15.5 6.91875 15.5 6.99956C15.5 7.08037 15.4842 7.16034 15.4535 7.23464C15.4229 7.30894 15.378 7.37603 15.3216 7.43184L8.97539 13.7087C8.89369 13.7895 8.79088 13.8437 8.67972 13.8646C8.56856 13.8854 8.45393 13.872 8.35007 13.826C8.2462 13.7799 8.15766 13.7033 8.09544 13.6056C8.03321 13.5079 8.00004 13.3934 8.00003 13.2764V10.296C6.37742 10.3468 5.15146 10.6192 4.17537 11.1419C3.12068 11.7068 2.3559 12.5508 1.53161 13.6452C1.45767 13.7433 1.35601 13.815 1.24082 13.8504C1.12563 13.8857 1.00266 13.883 0.889064 13.8424V13.8417Z" fill="#DF9420"/>
</svg>
